<?xml version="1.0" encoding="UTF-8" standalone="no"?>
<!-- Generator: Adobe Illustrator 16.0.0, SVG Export Plug-In . SVG Version: 6.00 Build 0)  -->

<svg
   xmlns:dc="http://purl.org/dc/elements/1.1/"
   xmlns:cc="http://creativecommons.org/ns#"
   xmlns:rdf="http://www.w3.org/1999/02/22-rdf-syntax-ns#"
   xmlns:svg="http://www.w3.org/2000/svg"
   xmlns="http://www.w3.org/2000/svg"
   xmlns:sodipodi="http://sodipodi.sourceforge.net/DTD/sodipodi-0.dtd"
   xmlns:inkscape="http://www.inkscape.org/namespaces/inkscape"
   version="1.1"
   id="Layer_5"
   x="0px"
   y="0px"
   width="512px"
   height="512px"
   viewBox="0 0 512 512"
   enable-background="new 0 0 512 512"
   xml:space="preserve"
   inkscape:version="0.91 r13725"
   sodipodi:docname="icon.svg"><metadata
   id="metadata29"><rdf:RDF><cc:Work
       rdf:about=""><dc:format>image/svg+xml</dc:format><dc:type
         rdf:resource="http://purl.org/dc/dcmitype/StillImage" /></cc:Work></rdf:RDF></metadata><defs
   id="defs27"><clipPath
     clipPathUnits="userSpaceOnUse"
     id="clipPath98"><path
       d="M 0,780 1096,780 1096,0 0,0 0,780 Z"
       id="path100"
       inkscape:connector-curvature="0" /></clipPath><linearGradient
     x1="0"
     y1="0"
     x2="1"
     y2="0"
     gradientUnits="userSpaceOnUse"
     gradientTransform="matrix(0,-150.07257,-150.07257,0,235.66586,629.66669)"
     spreadMethod="pad"
     id="linearGradient122"><stop
       style="stop-opacity:1;stop-color:#5c4478"
       offset="0"
       id="stop124" /><stop
       style="stop-opacity:1;stop-color:#3a2c4d"
       offset="1"
       id="stop126" /></linearGradient><linearGradient
     x1="0"
     y1="0"
     x2="1"
     y2="0"
     gradientUnits="userSpaceOnUse"
     gradientTransform="matrix(0,-99.342285,-99.342285,0,350.93732,585)"
     spreadMethod="pad"
     id="linearGradient142"><stop
       style="stop-opacity:1;stop-color:#5c4478"
       offset="0"
       id="stop144" /><stop
       style="stop-opacity:1;stop-color:#3a2c4d"
       offset="1"
       id="stop146" /></linearGradient><clipPath
     clipPathUnits="userSpaceOnUse"
     id="clipPath154"><path
       d="m 96.416,554.067 c 0,-77.107 62.507,-139.613 139.613,-139.613 l 0,0 c 77.107,0 139.614,62.506 139.614,139.613 l 0,0 c 0,77.106 -62.507,139.613 -139.614,139.613 l 0,0 c -77.106,0 -139.613,-62.507 -139.613,-139.613"
       id="path156"
       inkscape:connector-curvature="0" /></clipPath></defs><sodipodi:namedview
   pagecolor="#ffffff"
   bordercolor="#666666"
   borderopacity="1"
   objecttolerance="10"
   gridtolerance="10"
   guidetolerance="10"
   inkscape:pageopacity="0"
   inkscape:pageshadow="2"
   inkscape:window-width="1280"
   inkscape:window-height="738"
   id="namedview25"
   showgrid="false"
   inkscape:zoom="0.4609375"
   inkscape:cx="256"
   inkscape:cy="253.83051"
   inkscape:window-x="-8"
   inkscape:window-y="-8"
   inkscape:window-maximized="1"
   inkscape:current-layer="Layer_5" />




<g
   id="g4509"
   transform="matrix(0.34811213,0,0,-0.2665129,174.50384,356.36121)"
   inkscape:export-xdpi="97.851151"
   inkscape:export-ydpi="97.851151"
   inkscape:export-filename="C:\Users\victor\Rocket.Chat\public\images\logo\rocketcat.png"><g
     transform="matrix(4.8395466,0,0,5.4505593,-895.70105,-2578.28)"
     id="g94"><g
       clip-path="url(#clipPath98)"
       id="g96"><g
         transform="translate(375.6427,554.0668)"
         id="g102"><path
           inkscape:connector-curvature="0"
           id="path104"
           style="fill:#684c87;fill-opacity:1;fill-rule:nonzero;stroke:none"
           d="m 0,0 c 0,-77.106 -62.507,-139.613 -139.613,-139.613 -77.107,0 -139.614,62.507 -139.614,139.613 0,77.106 62.507,139.613 139.614,139.613 C -62.507,139.613 0,77.106 0,0" /></g></g></g><g
     transform="matrix(4.8395466,0,0,5.4505593,-868.1997,-2603.5583)"
     id="g110"><g
       id="g112"><g
         id="g118"><g
           id="g120"><path
             inkscape:connector-curvature="0"
             id="path128"
             style="fill:url(#linearGradient122);stroke:none"
             d="m 171.999,566.973 c 0,-29.724 20.371,-54.688 47.914,-61.699 l 0,0 c -0.767,-4.551 1.163,-9.574 6.831,-11.294 l 0,0 c 1.26,-0.382 2.538,-0.715 3.826,-1.007 l 0,0 c -0.002,-0.029 -0.008,-0.056 -0.01,-0.085 l 0,0 c -0.528,-6.596 3.581,-10.332 8.635,-13.062 l 0,0 c 0.045,-0.256 0.093,-0.509 0.161,-0.755 l 0,0 c 1.587,-5.774 6.928,-7.72 12.301,-6.985 l 0,0 c 3.638,0.499 6.672,2.413 9.273,4.943 l 0,0 c 3.631,3.535 3.88,10.522 0.188,14.163 l 0,0 c 3.339,4.333 3.234,10.632 -0.767,14.985 l 0,0 c -0.503,0.547 -1.026,1.035 -1.565,1.478 l 0,0 c 23.727,9.255 40.547,32.315 40.547,59.318 l 0,0 c 0,35.162 -28.505,63.667 -63.667,63.667 l 0,0 c -35.162,0 -63.667,-28.505 -63.667,-63.667" /></g></g></g></g><g
     transform="matrix(4.8395466,0,0,5.4505593,-900.26489,-2580.7496)"
     id="g130"><g
       id="g132"><g
         id="g138"><g
           id="g140"><path
             inkscape:connector-curvature="0"
             id="path148"
             style="fill:url(#linearGradient142);stroke:none"
             d="m 306.379,506.985 22.238,0 26.243,-26.243 c 13.178,21.31 20.783,46.429 20.783,73.325 l 0,0 c 0,1.421 -0.021,2.84 -0.064,4.251 l 0,0 -70.32,70.32 1.12,-121.653 z" /></g></g></g></g><g
     transform="matrix(4.8395466,0,0,5.4505593,-900.18993,-2577.4445)"
     id="g150"><g
       clip-path="url(#clipPath154)"
       id="g152"><g
         transform="translate(143.4417,474.5798)"
         id="g158"><path
           inkscape:connector-curvature="0"
           id="path160"
           style="fill:#49335e;fill-opacity:1;fill-rule:nonzero;stroke:none"
           d="M 0,0 70.202,-70.202 142.095,-65.71 76.385,0 0,0 Z" /></g><g
         transform="translate(317.6792,409.1327)"
         id="g162"><path
           inkscape:connector-curvature="0"
           id="path164"
           style="fill:#49335e;fill-opacity:1;fill-rule:nonzero;stroke:none"
           d="m 0,0 -65.447,65.447 76.385,0 L 41.586,34.799 0,0 Z" /></g><g
         transform="translate(359.2651,443.9318)"
         id="g166"><path
           inkscape:connector-curvature="0"
           id="path168"
           style="fill:#4e3a66;fill-opacity:1;fill-rule:nonzero;stroke:none"
           d="m 0,0 9.617,22.789 -40.265,40.265 0,-32.406 L 0,0 Z" /></g><g
         transform="translate(331.5106,397.5106)"
         id="g170"><path
           inkscape:connector-curvature="0"
           id="path172"
           style="fill:#4e3a66;fill-opacity:1;fill-rule:nonzero;stroke:none"
           d="m 0,0 -111.684,111.684 0,-34.615 65.71,-65.71 L 0,0 Z" /></g></g></g><g
     transform="matrix(4.8395466,0,0,5.4505593,246.75004,1007.7513)"
     id="g28"><path
       inkscape:connector-curvature="0"
       id="path30"
       style="fill:#ffffff;fill-opacity:1;fill-rule:nonzero;stroke:none"
       d="m 0,0 c -51.135,0 -92.588,-41.453 -92.588,-92.588 0,-45.607 32.976,-83.51 76.385,-91.172 l 0,33.2 c -25.367,7.075 -43.979,30.349 -43.979,57.972 0,33.238 26.944,60.182 60.182,60.182 33.238,0 60.182,-26.944 60.182,-60.182 0,-27.623 -18.612,-50.897 -43.979,-57.972 l 0,-33.2 c 43.409,7.662 76.385,45.565 76.385,91.172 C 92.588,-41.453 51.135,0 0,0" /></g><g
     style="fill:#ffffff"
     transform="matrix(4.8395466,0,0,5.4505593,61.176977,187.96462)"
     id="g14"><path
       inkscape:connector-curvature="0"
       id="path16"
       style="fill:#ffffff;fill-opacity:1;fill-rule:nonzero;stroke:none"
       d="m 0,0 -10.413,0 -43.98,0 0,-32.406 43.98,0 10.413,0 21.992,0 L 21.992,0 0,0 Z" /></g><path
     inkscape:connector-curvature="0"
     id="path18"
     style="fill:#e6e6e6;fill-opacity:1;fill-rule:nonzero;stroke:none"
     d="m 693.84344,184.98509 -369.66877,0 0,-176.6308207 369.66877,0 0,176.6308207 z" /></g></svg>